<?xml version="1.0" encoding="UTF-8"?>
<!-- Generator: Adobe Illustrator 21.1.0, SVG Export Plug-In . SVG Version: 6.00 Build 0)  -->
<svg version="1.1" id="design" xmlns="http://www.w3.org/2000/svg" xmlns:xlink="http://www.w3.org/1999/xlink" x="0px" y="0px" viewBox="0 0 835 280" style="enable-background:new 0 0 835 280;" xml:space="preserve">
<style type="text/css">
	.st0{opacity:0.3;fill:url(#SVGID_1_);}
	.st1{clip-path:url(#SVGID_3_);}
	.st2{opacity:0.3;fill:url(#SVGID_4_);}
	.st3{opacity:0.3;fill:url(#SVGID_5_);}
	.st4{opacity:0.3;fill:url(#SVGID_6_);}
	.st5{fill:#FFFFFF;}
	.st6{fill:url(#SVGID_7_);}
	.st7{fill:#48A23F;}
	.st8{fill:url(#SVGID_8_);}
	.st9{fill:url(#SVGID_9_);}
	.st10{fill:url(#SVGID_10_);}
	.st11{fill:url(#SVGID_11_);}
	.st12{fill:url(#SVGID_12_);}
	.st13{fill:url(#SVGID_13_);}
	.st14{fill:none;stroke:#FFFFFF;stroke-linecap:round;stroke-linejoin:round;stroke-miterlimit:10;}
	.st15{fill:none;stroke:#21333A;stroke-linecap:round;stroke-linejoin:round;stroke-miterlimit:10;}
	.st16{opacity:0.3;fill:url(#SVGID_14_);}
	.st17{fill:url(#SVGID_15_);}
	.st18{fill:url(#SVGID_16_);}
	.st19{fill:none;stroke:#FFFFFF;stroke-width:2;stroke-linecap:round;stroke-linejoin:round;stroke-miterlimit:10;}
	.st20{fill:#5999D3;}
	.st21{fill:#21333A;}
	.st22{fill:#8C4799;}
	.st23{opacity:0.3;fill:url(#SVGID_17_);}
	.st24{opacity:0.3;fill:url(#SVGID_18_);}
	.st25{fill:#025396;}
	.st26{fill:none;stroke:#2E849E;stroke-width:0.4833;stroke-miterlimit:10;}
	.st27{opacity:0.3;fill:url(#SVGID_19_);}
	.st28{fill:none;stroke:#6B287C;stroke-width:0.3524;stroke-miterlimit:10;}
	.st29{fill:#FF9C87;}
	.st30{opacity:0.3;fill:url(#SVGID_20_);}
	.st31{fill:url(#SVGID_21_);}
	.st32{opacity:0.3;}
	.st33{fill:url(#SVGID_22_);}
	.st34{fill:#FBB040;}
	.st35{fill:#D17E6F;}
	.st36{fill:none;stroke:#1A4B59;stroke-width:0.3524;stroke-linecap:round;stroke-linejoin:round;stroke-miterlimit:10;}
	.st37{fill:none;stroke:#1A4B59;stroke-width:0.3524;stroke-miterlimit:10;}
	.st38{fill:url(#SVGID_23_);}
	.st39{opacity:0.3;fill:url(#SVGID_24_);}
	.st40{fill:#D17F00;}
	.st41{opacity:0.3;fill:url(#SVGID_25_);}
	.st42{fill:#804E00;}
	.st43{opacity:0.3;fill:url(#SVGID_26_);}
	.st44{opacity:0.3;fill:url(#SVGID_27_);}
	.st45{fill:#A66500;}
	.st46{fill:none;stroke:#343947;stroke-width:0.3524;stroke-miterlimit:10;}
	.st47{opacity:0.3;fill:url(#SVGID_28_);}
	.st48{opacity:0.3;fill:url(#SVGID_29_);}
	.st49{fill:#005EB8;}
	.st50{opacity:0.3;fill:url(#SVGID_30_);}
	.st51{fill:none;stroke:#276F85;stroke-width:0.3442;stroke-miterlimit:10;}
	.st52{fill:none;stroke:#BABABA;stroke-width:0.3524;stroke-miterlimit:10;}
	.st53{fill:#F9CA47;}
	.st54{fill:none;stroke:#6B9CFF;stroke-width:0.3524;stroke-miterlimit:10;}
	.st55{opacity:0.3;fill:url(#SVGID_31_);}
	.st56{opacity:0.3;fill:url(#SVGID_32_);}
	.st57{opacity:0.3;fill:url(#SVGID_33_);}
	.st58{fill:none;stroke:#3358CC;stroke-width:0.3524;stroke-miterlimit:10;}
	.st59{opacity:0.3;fill:url(#SVGID_34_);}
	.st60{opacity:0.3;fill:url(#SVGID_35_);}
	.st61{fill:url(#SVGID_36_);}
	.st62{fill:url(#SVGID_37_);}
	.st63{fill:none;stroke:#025396;stroke-width:0.4833;stroke-miterlimit:10;}
	.st64{opacity:0.3;fill:url(#SVGID_38_);}
	.st65{opacity:0.3;fill:url(#SVGID_39_);}
	.st66{fill:none;stroke:#2E849E;stroke-width:0.4833;stroke-linecap:round;stroke-linejoin:round;stroke-miterlimit:10;}
	.st67{fill:#252F3E;}
	.st68{fill:#FF9900;}
</style>
<linearGradient id="SVGID_1_" gradientUnits="userSpaceOnUse" x1="662.6302" y1="33.5682" x2="741.4021" y2="33.5682">
	<stop offset="0" style="stop-color:#BDDDF4"/>
	<stop offset="1" style="stop-color:#70BEF2"/>
</linearGradient>
<path class="st0" d="M672.9,33.6h0.4c0-11.4,9.2-20.6,20.6-20.6c7.1,0,13.4,3.6,17.1,9.2c1.8-1,3.9-1.6,6.1-1.6c7.2,0,13,5.8,13,13  h1.1c5.7,0,10.3,4.6,10.3,10.3c0,5.7-4.6,10.3-10.3,10.3h-58.2c-5.7,0-10.3-4.6-10.3-10.3C662.6,38.2,667.2,33.6,672.9,33.6z"/>
<g>
	<defs>
		<rect id="SVGID_2_" x="-0.5" width="835" height="280"/>
	</defs>
	<clipPath id="SVGID_3_">
		<use xlink:href="#SVGID_2_" style="overflow:visible;"/>
	</clipPath>
	<g class="st1">
		<linearGradient id="SVGID_4_" gradientUnits="userSpaceOnUse" x1="453.8215" y1="318.7528" x2="453.8215" y2="35.944">
			<stop offset="0" style="stop-color:#BDDDF4"/>
			<stop offset="1" style="stop-color:#70BEF2"/>
		</linearGradient>
		<path class="st2" d="M256.5,166c-23,76.6-134,4.9-134,120c0,45,225.9,8.5,267,9s61.2,21.9,133.3,23.7c72,1.8,76.8-19.2,122.7-18.7    c46,0.4,91.9-1.9,103.4-45.4c11.5-43.4,13.5-61.8,27-86.6c25.3-46.2-5.2-77.8-46.7-82.9c-59.8-7.4-88.3-10.7-129.7-31.3    c-36-18-85.2-25.2-130.5-8.2c-45.3,17-86.8,40.2-115.7,44.6C306.6,97.2,272.5,112.7,256.5,166z"/>
		
			<linearGradient id="SVGID_5_" gradientUnits="userSpaceOnUse" x1="684.6162" y1="233.7243" x2="684.6162" y2="68.0667" gradientTransform="matrix(-0.9486 -0.3165 0.3165 -0.9486 1263.1631 528.4701)">
			<stop offset="0" style="stop-color:#BDDDF4"/>
			<stop offset="1" style="stop-color:#70BEF2"/>
		</linearGradient>
		<path class="st3" d="M796,219.7c7.1-15.1,32.4-29.1,24-50.1c-8.8-22.3-42.1-34.4-64.8-42.3s-30-23.5-69.7-37.8    s-46.2-3.6-71.7-12.3c-25.5-8.8-51.4-16-65.9,6c-14.4,22-19,31.9-31.1,43.1c-22.6,21-11.5,44.2,10.6,54.7    c31.9,15.2,47.1,22.3,66.2,41.4c16.7,16.7,42.7,29.8,71,28.7c28.3-1,55.7-6.2,72.6-3.3C764.5,252.5,782.1,249.2,796,219.7z"/>
		
			<linearGradient id="SVGID_6_" gradientUnits="userSpaceOnUse" x1="913.558" y1="208.9927" x2="913.558" y2="43.3351" gradientTransform="matrix(-0.9486 -0.3165 0.3165 -0.9486 1263.1631 528.4701)">
			<stop offset="0" style="stop-color:#BDDDF4"/>
			<stop offset="1" style="stop-color:#70BEF2"/>
		</linearGradient>
		<path class="st4" d="M571,170.7c7.1-15.1,32.4-29.1,24-50.1c-8.8-22.3-42.1-34.4-64.8-42.3c-22.7-7.9-30-23.5-69.7-37.8    s-46.2-3.6-71.7-12.3c-25.5-8.8-51.4-16-65.9,6c-14.4,22-19,31.9-31.1,43.1c-22.6,21-11.5,44.2,10.6,54.7    c31.9,15.2,47.1,22.3,66.2,41.4c16.7,16.7,42.7,29.8,71,28.7c28.3-1,55.7-6.2,72.6-3.3C539.5,203.5,557.1,200.2,571,170.7z"/>
		<path class="st5" d="M285.3,150.9h0.3c0-10.6,8.6-19.3,19.3-19.3c6.7,0,12.6,3.4,16,8.6c1.7-0.9,3.6-1.5,5.7-1.5    c6.7,0,12.2,5.4,12.2,12.2h1c5.3,0,9.6,4.3,9.6,9.6c0,5.3-4.3,9.6-9.6,9.6h-54.5c-5.3,0-9.6-4.3-9.6-9.6    C275.6,155.2,279.9,150.9,285.3,150.9z"/>
		<linearGradient id="SVGID_7_" gradientUnits="userSpaceOnUse" x1="304.857" y1="140.0052" x2="798.5" y2="140.0052">
			<stop offset="0" style="stop-color:#FBDB62"/>
			<stop offset="1" style="stop-color:#FBB040"/>
		</linearGradient>
		<path class="st6" d="M324.3,130.8c-3.1,26.1-34,59.9-11,87.2c24.4,29,80.4,30.6,118.5,31c38.1,0.4,56.7,20.3,123.5,21.9    c66.8,1.7,71.2-17.8,113.8-17.4c42.6,0.4,85.2-1.8,95.8-42.1c10.6-40.3,12.5-57.3,25.1-80.2c23.4-42.8-4.8-72.1-43.3-76.8    c-55.4-6.8-81.8-9.9-120.2-29c-33.4-16.7-79-23.3-120.9-7.6c-42,15.7-80.4,37.2-107.3,41.3C355,65.7,330.3,79.5,324.3,130.8z"/>
	</g>
</g>
<circle class="st5" cx="472.3" cy="118.3" r="14.6"/>
<g>
	<circle class="st7" cx="472.3" cy="121.6" r="1.2"/>
	<g>
		<path class="st7" d="M472.3,117.5c-1.4,0-2.8,0.8-3.5,2c0,0.1-0.1,0.1-0.1,0.2l1.3,1.4c0.1-0.2,0.1-0.5,0.3-0.7    c0.4-0.7,1.2-1.2,2-1.2c0.8,0,1.6,0.4,2,1.2c0.1,0.2,0.2,0.4,0.3,0.7l1.3-1.4c0-0.1,0-0.1-0.1-0.2    C475.1,118.2,473.8,117.5,472.3,117.5z"/>
		<path class="st7" d="M472.3,114.3c-2.2,0-4.3,1-5.7,2.8c-0.1,0.1-0.1,0.2-0.2,0.3l1.2,1.3c0.1-0.2,0.2-0.3,0.3-0.5    c1.1-1.3,2.7-2.1,4.4-2.1c1.7,0,3.3,0.8,4.4,2.1c0.1,0.1,0.2,0.3,0.3,0.5l1.2-1.3c-0.1-0.1-0.1-0.2-0.2-0.3    C476.7,115.3,474.6,114.3,472.3,114.3z"/>
		<path class="st7" d="M472.3,111.2c-3,0-5.9,1.3-7.9,3.6c-0.1,0.1-0.1,0.2-0.2,0.3l1.2,1.3c0.1-0.1,0.2-0.3,0.3-0.4    c1.6-1.9,4-3,6.5-3c2.5,0,4.9,1.1,6.5,3c0.1,0.1,0.2,0.3,0.3,0.4l1.2-1.3c-0.1-0.1-0.1-0.2-0.2-0.3    C478.2,112.5,475.4,111.2,472.3,111.2z"/>
	</g>
</g>
<linearGradient id="SVGID_8_" gradientUnits="userSpaceOnUse" x1="536.058" y1="27.4824" x2="536.058" y2="55.8063">
	<stop offset="0" style="stop-color:#FFE4A1"/>
	<stop offset="1" style="stop-color:#FFE4A1;stop-opacity:0"/>
</linearGradient>
<path class="st8" d="M549.9,30.6l-12.9-16.9c-0.4-0.6-1.3-0.6-1.8,0l-12.9,16.9c-0.6,0.7,0,1.8,0.9,1.8h3.6c0.6,0,1.1,0.5,1.1,1.1  v39.3c0,0.6,0.5,1.1,1.1,1.1h14.2c0.6,0,1.1-0.5,1.1-1.1V33.5c0-0.6,0.5-1.1,1.1-1.1h3.6C549.9,32.4,550.4,31.4,549.9,30.6z"/>
<linearGradient id="SVGID_9_" gradientUnits="userSpaceOnUse" x1="447.0111" y1="75.1284" x2="447.0111" y2="103.4523">
	<stop offset="0" style="stop-color:#FFE4A1"/>
	<stop offset="1" style="stop-color:#FFE4A1;stop-opacity:0"/>
</linearGradient>
<path class="st9" d="M460.8,78.3l-12.9-16.9c-0.4-0.6-1.3-0.6-1.8,0l-12.9,16.9c-0.6,0.7,0,1.8,0.9,1.8h3.6c0.6,0,1.1,0.5,1.1,1.1  v39.3c0,0.6,0.5,1.1,1.1,1.1h14.2c0.6,0,1.1-0.5,1.1-1.1V81.2c0-0.6,0.5-1.1,1.1-1.1h3.6C460.8,80.1,461.4,79,460.8,78.3z"/>
<linearGradient id="SVGID_10_" gradientUnits="userSpaceOnUse" x1="576.5484" y1="88.2008" x2="576.5484" y2="271.9306">
	<stop offset="0" style="stop-color:#ED8B00"/>
	<stop offset="0.2175" style="stop-color:#F3A017"/>
	<stop offset="0.511" style="stop-color:#FAB730"/>
	<stop offset="0.78" style="stop-color:#FEC53F"/>
	<stop offset="1" style="stop-color:#FFCA44"/>
</linearGradient>
<path class="st10" d="M404.1,259.9H749c0,0-22.9-12.3-26.2-34c-3.3-21.8-3.3-38.9-26.5-50.4c-23.2-11.5-66.4-15.3-84.4-29.9  c-18-14.6-49.4-26.8-73.9-6.2c-24.5,20.6-51.7,35.2-77.6,46.4C427.3,200.1,404.1,224.9,404.1,259.9z"/>
<linearGradient id="SVGID_11_" gradientUnits="userSpaceOnUse" x1="499.0844" y1="140.6675" x2="499.0844" y2="284.454" gradientTransform="matrix(-1 0 0 1 1059.448 0)">
	<stop offset="0" style="stop-color:#ED8B00"/>
	<stop offset="0.2175" style="stop-color:#F3A017"/>
	<stop offset="0.511" style="stop-color:#FAB730"/>
	<stop offset="0.78" style="stop-color:#FEC53F"/>
	<stop offset="1" style="stop-color:#FFCA44"/>
</linearGradient>
<path class="st11" d="M695.3,259.9H425.4c0,0,17.9-9.6,20.5-26.6c2.6-17,2.6-30.5,20.7-39.5c18.2-9,52-12,66.1-23.4  c14.1-11.4,38.7-21,57.8-4.8c19.1,16.1,40.4,27.5,60.7,36.3C677.2,213.1,695.3,232.6,695.3,259.9z"/>
<g>
	<linearGradient id="SVGID_12_" gradientUnits="userSpaceOnUse" x1="717.9587" y1="189.5365" x2="717.9587" y2="297.3016">
		<stop offset="0" style="stop-color:#48A23F"/>
		<stop offset="1" style="stop-color:#71BE72"/>
	</linearGradient>
	<path class="st12" d="M672.5,259.9h83.1c0,0,11.5-24.9,7-32.6c-2.8-4.8-11.2-2.6-11.8-11.8c-0.6-9.3,6.5-39.9-4.1-40.9   c-10.7-1-19.3,37-26.4,37.4c-7.1,0.4-10.2-16.8-17.5-16.4c-7.4,0.4-10.9,31.2-15.6,32.4c-4.7,1.2-9.7-1.4-12.9,4.1   C671.2,237.6,672.5,259.9,672.5,259.9z"/>
	<path class="st5" d="M743.2,187.9c0,0-5.8,41-17,72"/>
	<path class="st5" d="M754.3,230.8c0,0-3.1,16.5-10.1,29.1"/>
	<path class="st5" d="M703.5,205.9c0,0,0.7,32.3,4.7,54"/>
	<path class="st5" d="M681.1,237.1c0,0,1.6,14.1,4.3,22.8"/>
</g>
<g>
	<linearGradient id="SVGID_13_" gradientUnits="userSpaceOnUse" x1="372.9174" y1="201.1821" x2="372.9174" y2="284.4692">
		<stop offset="0" style="stop-color:#48A23F"/>
		<stop offset="1" style="stop-color:#71BE72"/>
	</linearGradient>
	<path class="st13" d="M312.1,260h124.7c0,0-4.1-9.1-8.4-16.2c-4.3-7.1-10.6-4.3-14.1-11.1c-3.6-6.7-4.9-13.1-11.5-13.8   c-6.6-0.6-17.6,7.8-24,0c-6.4-7.8-10.8-38.5-23.1-38.5c-12.2,0-11.6,47-18.6,47.4c-6.9,0.4-14.4-12-22.3-8.8   C303.5,223.5,312.1,260,312.1,260z"/>
	<line class="st14" x1="357.6" y1="197.9" x2="364" y2="260"/>
	<line class="st14" x1="320.7" y1="230" x2="335.1" y2="260"/>
	<line class="st14" x1="400.4" y1="227.4" x2="390.8" y2="260"/>
</g>
<line class="st15" x1="256.4" y1="259.9" x2="798" y2="259.9"/>
<path class="st5" d="M698.2,60.6c-4.6,1.5-5.8,2.8-7.3,7.3c-1.5-4.6-2.8-5.8-7.3-7.3c4.6-1.5,5.8-2.8,7.3-7.3  C692.4,57.8,693.7,59,698.2,60.6z"/>
<path class="st5" d="M741.2,165.5c-1.9,0.6-2.4,1.1-3,3c-0.6-1.9-1.1-2.4-3-3c1.9-0.6,2.4-1.1,3-3  C738.8,164.4,739.3,164.9,741.2,165.5z"/>
<g>
	<path class="st5" d="M351.3,136c-4.6,1.5-5.8,2.8-7.3,7.3c-1.5-4.6-2.8-5.8-7.3-7.3c4.6-1.5,5.8-2.8,7.3-7.3   C345.5,133.2,346.7,134.5,351.3,136z"/>
	<path class="st5" d="M356.5,150.8c-2.1,0.7-2.6,1.3-3.3,3.3c-0.7-2.1-1.3-2.6-3.3-3.3c2.1-0.7,2.6-1.3,3.3-3.3   C353.9,149.5,354.4,150.1,356.5,150.8z"/>
	<path class="st5" d="M359.3,122.2c-1.4,0.5-1.8,0.9-2.3,2.3c-0.5-1.4-0.9-1.8-2.3-2.3c1.4-0.5,1.8-0.9,2.3-2.3   C357.5,121.4,357.9,121.8,359.3,122.2z"/>
	<path class="st5" d="M397.8,83.7c-1.4,0.5-1.8,0.9-2.3,2.3c-0.5-1.4-0.9-1.8-2.3-2.3c1.4-0.5,1.8-0.9,2.3-2.3   C396,82.9,396.4,83.3,397.8,83.7z"/>
</g>
<path class="st5" d="M782.2,91.8c-2.5,0.8-3.2,1.5-4,4c-0.8-2.5-1.5-3.2-4-4c2.5-0.8,3.2-1.5,4-4C779,90.3,779.7,90.9,782.2,91.8z"/>
<path class="st5" d="M415.2,113.8c-2.5,0.8-3.2,1.5-4,4c-0.8-2.5-1.5-3.2-4-4c2.5-0.8,3.2-1.5,4-4  C412,112.3,412.7,112.9,415.2,113.8z"/>
<path class="st5" d="M633,103.7c-2.5,0.8-3.2,1.5-4,4c-0.8-2.5-1.5-3.2-4-4c2.5-0.8,3.2-1.5,4-4C629.8,102.1,630.5,102.8,633,103.7z  "/>
<g>
	<ellipse transform="matrix(0.6706 -0.7418 0.7418 0.6706 169.3295 574.1049)" class="st5" cx="731.2" cy="96.4" rx="15" ry="15"/>
	<g>
		<path class="st7" d="M729.8,97.6c-0.2-0.3-0.6-0.2-0.7,0.1l-0.6,1.5c-0.8-1-1-2.3-0.5-3.4c0.2-0.7,0.7-1.2,1.2-1.6    c0.3-0.2,0.3-0.5,0.2-0.8l-0.9-1.7c-0.2-0.3-0.6-0.5-0.9-0.3c-1.2,0.8-2.1,1.9-2.6,3.3c-1.1,2.8-0.1,6,2.3,7.8l-0.6,1.7    c-0.1,0.3,0.2,0.6,0.5,0.5l5.1-1.6c0.3-0.1,0.4-0.5,0.3-0.7L729.8,97.6z"/>
		<path class="st7" d="M735,90.4l0.6-1.7c0.1-0.3-0.2-0.6-0.5-0.5l-5.1,1.6c-0.3,0.1-0.4,0.5-0.3,0.7l2.7,4.6    c0.2,0.3,0.6,0.2,0.7-0.1l0.6-1.5c0.8,1,1,2.3,0.5,3.4c-0.3,0.7-0.7,1.3-1.3,1.7c-0.3,0.2-0.4,0.5-0.2,0.8l0.9,1.8    c0.2,0.3,0.6,0.5,0.9,0.3c1.3-0.8,2.3-1.9,2.8-3.4C738.4,95.3,737.4,92.2,735,90.4z"/>
	</g>
</g>
<g>
	
		<ellipse transform="matrix(0.6706 -0.7418 0.7418 0.6706 153.5556 568.9741)" class="st5" cx="717.5" cy="111.6" rx="1.1" ry="1.1"/>
	
		<ellipse transform="matrix(0.6706 -0.7418 0.7418 0.6706 150.1105 567.8613)" class="st5" cx="714.5" cy="114.9" rx="1.1" ry="1.1"/>
	
		<ellipse transform="matrix(0.6706 -0.7418 0.7418 0.6706 146.628 566.7019)" class="st5" cx="711.5" cy="118.2" rx="1.1" ry="1.1"/>
</g>
<g>
	<path class="st5" d="M618.9,59.1h-0.5c0-16.8-13.6-30.4-30.4-30.4c-10.6,0-19.9,5.4-25.3,13.6c-2.7-1.4-5.7-2.3-9-2.3   c-10.6,0-19.2,8.6-19.2,19.2h-1.6c-8.4,0-15.2,6.8-15.2,15.2c0,8.4,6.8,15.2,15.2,15.2h86.1c8.4,0,15.2-6.8,15.2-15.2   C634.1,66,627.3,59.1,618.9,59.1z"/>
	<linearGradient id="SVGID_14_" gradientUnits="userSpaceOnUse" x1="564.8453" y1="38.143" x2="564.8453" y2="107.5499">
		<stop offset="0" style="stop-color:#BDDDF4"/>
		<stop offset="1" style="stop-color:#70BEF2"/>
	</linearGradient>
	<path class="st16" d="M535.2,84.5c-2.9,0.5-5.5,2.1-7.3,4.3c1.6,0.5,3.2,0.8,4.9,0.8h69c-2-2.8-5.1-4.8-8.7-5.2   c-1.2-6.9-7.2-12.2-14.5-12.2c-1.7,0-3.3,0.3-4.9,0.9c-4.1-5-10.3-8-16.9-8C545.6,65,536.4,73.6,535.2,84.5z"/>
	<path class="st5" d="M537.3,86.9h0.3c0-10.6,8.6-19.3,19.3-19.3c6.7,0,12.6,3.4,16,8.6c1.7-0.9,3.6-1.5,5.7-1.5   c6.7,0,12.2,5.4,12.2,12.2h1c5.3,0,9.6,4.3,9.6,9.6c0,5.3-4.3,9.6-9.6,9.6h-54.5c-5.3,0-9.6-4.3-9.6-9.6   C527.6,91.2,531.9,86.9,537.3,86.9z"/>
</g>
<linearGradient id="SVGID_15_" gradientUnits="userSpaceOnUse" x1="617.882" y1="41.249" x2="617.882" y2="66.2459">
	<stop offset="0" style="stop-color:#FFE4A1"/>
	<stop offset="1" style="stop-color:#FFE4A1;stop-opacity:0"/>
</linearGradient>
<path class="st17" d="M630.1,44l-11.4-14.9c-0.4-0.5-1.2-0.5-1.6,0L605.7,44c-0.5,0.6,0,1.6,0.8,1.6h3.1c0.5,0,1,0.4,1,1v34.7  c0,0.5,0.4,1,1,1h12.6c0.5,0,1-0.4,1-1V46.6c0-0.5,0.4-1,1-1h3.1C630.1,45.6,630.5,44.7,630.1,44z"/>
<linearGradient id="SVGID_16_" gradientUnits="userSpaceOnUse" x1="753.882" y1="76.249" x2="753.882" y2="101.2459">
	<stop offset="0" style="stop-color:#FFE4A1"/>
	<stop offset="1" style="stop-color:#FFE4A1;stop-opacity:0"/>
</linearGradient>
<path class="st18" d="M766.1,79l-11.4-14.9c-0.4-0.5-1.2-0.5-1.6,0L741.7,79c-0.5,0.6,0,1.6,0.8,1.6h3.1c0.5,0,1,0.4,1,1v34.7  c0,0.5,0.4,1,1,1h12.6c0.5,0,1-0.4,1-1V81.6c0-0.5,0.4-1,1-1h3.1C766.1,80.6,766.5,79.7,766.1,79z"/>
<path class="st19" d="M472.8,96.2V79.4c0-3,2.4-5.5,5.5-5.5h33.1"/>
<path class="st19" d="M668.4,93.9V79.4c0-3-2.4-5.5-5.5-5.5h-23.1"/>
<circle class="st20" cx="511.3" cy="74" r="2.2"/>
<circle class="st20" cx="639.8" cy="74" r="2.2"/>
<circle class="st20" cx="668.4" cy="93.9" r="2.2"/>
<circle class="st20" cx="472.8" cy="96.2" r="2.2"/>
<line class="st19" x1="568.6" y1="113.9" x2="568.6" y2="152.4"/>
<circle class="st20" cx="568.6" cy="113.7" r="2.2"/>
<circle class="st20" cx="568.6" cy="152.4" r="2.2"/>
<g>
	<path class="st20" d="M560.9,248.1c0,0-0.6,6-0.2,10.9c0.1,0.9,0.7,1.6,1.6,1.7c1,0.2,2.6,0.4,4.3,0.5c3.3,0.3,8.8,2.1,11.5,1.5   c2.7-0.7-2.2-6.1-5.3-7.2c0,0-3.4-5.3-3.9-7.4H560.9z"/>
	<g>
		<polygon class="st21" points="525.7,259.9 523.6,259.9 535.2,218.9 540.2,218.9   "/>
		<polygon class="st21" points="578.3,259.9 580.5,259.9 568.9,218.9 563.8,218.9   "/>
	</g>
	<path class="st20" d="M577.8,247.5c0,0-1.2,3-2,6.9c-0.2,0.8,0.2,1.6,1,2c1.2,0.6,3.1,1.4,5.3,2c3.6,1,8.5,3.8,9.9,2.8   c1.5-1-1.1-4.7-4.4-6.7l-2.8-6.4L577.8,247.5z"/>
	<path class="st22" d="M549.9,155c4.4,2,8.4,6.4,11.6,12.9c3.2,6.5,10.3,22.3,10.3,22.3h-8L549.9,155z"/>
	<path class="st21" d="M583.7,211.2l-6.5,6.5c-3.7,3.7-8.8,5.8-14.1,5.8h-19.8c-8.6,0-16.1-5.8-18.4-14.1l-8.2-31.6   c-3.1-11.9,5.9-23.6,18.3-23.6h6.1c4.6,0,8.6,3.1,9.7,7.5l12.7,49.6L583.7,211.2z"/>
	<linearGradient id="SVGID_17_" gradientUnits="userSpaceOnUse" x1="565.2676" y1="202.9586" x2="560.8748" y2="213.2443">
		<stop offset="0" style="stop-color:#FFFFFF"/>
		<stop offset="0.1227" style="stop-color:#DADADA"/>
		<stop offset="0.4483" style="stop-color:#7E7E7E"/>
		<stop offset="0.7128" style="stop-color:#3A3A3A"/>
		<stop offset="0.9029" style="stop-color:#101010"/>
		<stop offset="1" style="stop-color:#000000"/>
	</linearGradient>
	<path class="st23" d="M567.5,211.3l-29,2.8c0,0,7.7,4.4,38,4.1c0.2-0.2,0.4-0.4,0.6-0.6l6.5-6.5L567.5,211.3z"/>
	<linearGradient id="SVGID_18_" gradientUnits="userSpaceOnUse" x1="539.7968" y1="156.8578" x2="539.7968" y2="194.1936">
		<stop offset="0" style="stop-color:#FFFFFF"/>
		<stop offset="0.1227" style="stop-color:#DADADA"/>
		<stop offset="0.4483" style="stop-color:#7E7E7E"/>
		<stop offset="0.7128" style="stop-color:#3A3A3A"/>
		<stop offset="0.9029" style="stop-color:#101010"/>
		<stop offset="1" style="stop-color:#000000"/>
	</linearGradient>
	<path class="st24" d="M558.4,191.5l-7.6-29.7c-1.1-4.4-5.1-7.5-9.7-7.5h-6.1c-3.4,0-6.5,0.9-9.2,2.4c-3.9,4.5-5.8,10.8-4.1,17.2   l4.6,17.7H558.4z"/>
	<path class="st25" d="M559.2,213.1h20.3c0,0-2.1,4.7-1.5,8.3c0.6,3.6,1,6.7,0,8.7c-1,2.1-2.1,4-1.6,7.5c0.4,3.6-2.4,11.4-2.4,11.4   h13c0,0,4.1-21,6-34.3c0.8-5.3-2.2-10.5-7.3-12.5c-5.8-2.2-14.8-4.5-27.6-4.5c-5.3,0-10.7,0-10.7,0L559.2,213.1z"/>
	<path class="st26" d="M562,205.5l20.1,3.2c1.6,0.3,2.8,1.8,2.5,3.4l-5.6,36.5"/>
	<linearGradient id="SVGID_19_" gradientUnits="userSpaceOnUse" x1="587.1021" y1="212.5012" x2="546.9235" y2="199.3226">
		<stop offset="0" style="stop-color:#FFFFFF"/>
		<stop offset="0.1227" style="stop-color:#DADADA"/>
		<stop offset="0.4483" style="stop-color:#7E7E7E"/>
		<stop offset="0.7128" style="stop-color:#3A3A3A"/>
		<stop offset="0.9029" style="stop-color:#101010"/>
		<stop offset="1" style="stop-color:#000000"/>
	</linearGradient>
	<path class="st27" d="M580.6,200.6c-5.6-1.6-13-2.8-22.4-2.8c-5.3,0-10.7,0-10.7,0l11.7,15.3h11.2   C570.9,209.6,572.8,203.6,580.6,200.6z"/>
	<path class="st25" d="M531.1,198.2c0,0-0.8,16,9.1,16.1c10,0.1,12.6,0,12.6,0s0,7.3,1,11.8c1,4.6,2.8,4.4,2.5,8.7   c-0.3,4.3-0.1,4.7,0,6.7c0.1,1.9,2.6,5.2,1.4,7.5h14.2c0,0-5.2-33.2-6.7-40c-1.5-6.8-7.5-10.2-13.3-11   C546.4,197.4,531.1,198.2,531.1,198.2z"/>
	<path class="st22" d="M525.8,158.6c0,0,6.9-5.1,14-5.2c4.1,0,7.7,0.8,10.1,1.5c2.2,0.7,3.9,2.4,4.7,4.6l10.8,30.6h-28.3   L525.8,158.6z"/>
	<line class="st28" x1="554.6" y1="159.6" x2="557.8" y2="168.7"/>
	<path class="st22" d="M525.8,158.6c2.9-1.8,7.1,2.4,8.5,6.5c1.4,4.1,5.3,16.2,5.3,16.2s6.6,1.1,18.2,7.7h-22.1   c-2.3,0-4.4-1.3-5.3-3.4c-2-4.2-5.1-11.4-5.9-15.3C523.2,164.5,523.6,160,525.8,158.6z"/>
	<path class="st28" d="M530.5,159.6c1.6,1.3,3.1,3.5,3.8,5.6c1.4,4.1,5.3,16.2,5.3,16.2s0.8,0.1,2.4,0.6"/>
	<path class="st29" d="M557.8,189c-6.7-3.8-11.7-5.8-14.8-6.7c-2,0.7-4.7,2.4-5.6,6.7H557.8z"/>
	<linearGradient id="SVGID_20_" gradientUnits="userSpaceOnUse" x1="541.4938" y1="186.1236" x2="553.6399" y2="186.1236">
		<stop offset="0" style="stop-color:#FFFFFF"/>
		<stop offset="0.1227" style="stop-color:#DADADA"/>
		<stop offset="0.4483" style="stop-color:#7E7E7E"/>
		<stop offset="0.7128" style="stop-color:#3A3A3A"/>
		<stop offset="0.9029" style="stop-color:#101010"/>
		<stop offset="1" style="stop-color:#000000"/>
	</linearGradient>
	<path class="st30" d="M547.9,189h9.9c-5-2.8-9.1-4.7-12.1-5.8L547.9,189z"/>
	<g>
		<linearGradient id="SVGID_21_" gradientUnits="userSpaceOnUse" x1="571.3391" y1="196.1793" x2="571.3391" y2="177.103">
			<stop offset="0" style="stop-color:#6B9CFF"/>
			<stop offset="3.555793e-02" style="stop-color:#76A3FF"/>
			<stop offset="0.1881" style="stop-color:#A0BFFF"/>
			<stop offset="0.3441" style="stop-color:#C2D6FF"/>
			<stop offset="0.5018" style="stop-color:#DDE8FF"/>
			<stop offset="0.6619" style="stop-color:#F0F5FF"/>
			<stop offset="0.826" style="stop-color:#FBFCFF"/>
			<stop offset="1" style="stop-color:#FFFFFF"/>
		</linearGradient>
		<path class="st31" d="M588.3,189h-38.6l4.9-20.2c0.4-1.6,1.9-2.8,3.5-2.8h31.1c2.4,0,4.1,2.2,3.5,4.5L588.3,189z"/>
		<g class="st32">
			<linearGradient id="SVGID_22_" gradientUnits="userSpaceOnUse" x1="554.9069" y1="162.6435" x2="554.9069" y2="189.9598">
				<stop offset="0" style="stop-color:#FFFFFF"/>
				<stop offset="0.1227" style="stop-color:#DADADA"/>
				<stop offset="0.4483" style="stop-color:#7E7E7E"/>
				<stop offset="0.7128" style="stop-color:#3A3A3A"/>
				<stop offset="0.9029" style="stop-color:#101010"/>
				<stop offset="1" style="stop-color:#000000"/>
			</linearGradient>
			<path class="st33" d="M560.1,166h-1.9c-1.7,0-3.1,1.1-3.5,2.8l-4.9,20.2h1.9l4.9-20.2C557,167.2,558.4,166,560.1,166z"/>
		</g>
		<path class="st34" d="M576.4,178.1c-0.5,2-2.5,3.7-4.5,3.7c-2,0-3.2-1.6-2.7-3.7s2.5-3.7,4.5-3.7    C575.7,174.5,576.9,176.1,576.4,178.1z"/>
	</g>
	<path class="st21" d="M551.9,142.1c2.3,0.2,5.7-1.1,5.9-4.4c0.2-3.4-3.7-6.6-10.4-5.8c-6.8,0.8-10.4,3.5-9.4,7.6c0,0-3,2-1.1,7.1   c0,0-1.9,1.3,1.9,4.3L551.9,142.1z"/>
	<path class="st35" d="M553.1,142l-1.2,6.6l-1.4-0.2c0,0-0.6,3.2-1.4,4.4c-0.9,1.2-3.7,0.5-3.7,0.5v2.2c0,0.7-0.6,1.3-1.3,1.3   c-1.9-0.1-5.2-0.3-6.1-3.4l2.4-6.1c0,0-2.2-3.8,0.4-4.4c1.3-0.3,1.2,1.8,1.2,1.8s1.8-0.7,2.5-3.2c0,0,2,0.4,4.5-0.6   C549,141,551.1,141.9,553.1,142z"/>
	<line class="st36" x1="541.8" y1="143.6" x2="548.1" y2="144.6"/>
	
		<ellipse transform="matrix(0.2129 -0.9771 0.9771 0.2129 291.0021 650.9099)" class="st37" cx="549.5" cy="144.8" rx="1.6" ry="1.5"/>
	<ellipse transform="matrix(0.213 -0.9771 0.9771 0.213 292.9046 654.654)" class="st37" cx="552.8" cy="145.5" rx="1.5" ry="0.8"/>
	<path class="st37" d="M551,145c0,0,0.7-0.3,1.1,0.2"/>
	<linearGradient id="SVGID_23_" gradientUnits="userSpaceOnUse" x1="540.1196" y1="147.1733" x2="540.3046" y2="147.1733">
		<stop offset="0" style="stop-color:#FFFFFF"/>
		<stop offset="0.1227" style="stop-color:#DADADA"/>
		<stop offset="0.4483" style="stop-color:#7E7E7E"/>
		<stop offset="0.7128" style="stop-color:#3A3A3A"/>
		<stop offset="0.9029" style="stop-color:#101010"/>
		<stop offset="1" style="stop-color:#000000"/>
	</linearGradient>
	<path class="st38" d="M540.3,147.4c0,0-0.1-0.2-0.2-0.4C540.2,147.2,540.3,147.4,540.3,147.4z"/>
	<linearGradient id="SVGID_24_" gradientUnits="userSpaceOnUse" x1="540.7304" y1="155.8394" x2="545.592" y2="147.9243">
		<stop offset="0" style="stop-color:#FFFFFF"/>
		<stop offset="0.1227" style="stop-color:#DADADA"/>
		<stop offset="0.4483" style="stop-color:#7E7E7E"/>
		<stop offset="0.7128" style="stop-color:#3A3A3A"/>
		<stop offset="0.9029" style="stop-color:#101010"/>
		<stop offset="1" style="stop-color:#000000"/>
	</linearGradient>
	<path class="st39" d="M547.8,153.5c-1.8-0.5-3.6-0.9-5.5-2.7c-1.9-1.8-2-3.5-2-3.5l-0.6,1.6c0.6,3,3.2,6.8,5.6,7   c0-0.1,0.1-0.2,0.1-0.4v-2.2C545.4,153.3,546.7,153.7,547.8,153.5z"/>
	<path class="st26" d="M533.1,196.6c0,0-0.1,8.6,5.4,10c3.7,1,10.5,1.4,14.5,1.5c1.8,0.1,3.4,1.4,3.7,3.2l7,37.7"/>
</g>
<g>
	<rect x="517.5" y="249.1" class="st21" width="3.4" height="12.5"/>
	<rect x="536.9" y="249.1" class="st21" width="3.4" height="12.5"/>
	<rect x="517.5" y="249.1" class="st21" width="3.4" height="12.5"/>
	<rect x="536.9" y="249.1" class="st21" width="3.4" height="12.5"/>
	<rect x="668.4" y="249.1" class="st21" width="3.4" height="12.5"/>
	<rect x="687.8" y="249.1" class="st21" width="3.4" height="12.5"/>
	<rect x="605.4" y="249.1" class="st21" width="3.4" height="12.5"/>
	<rect x="624.8" y="249.1" class="st21" width="3.4" height="12.5"/>
	<rect x="599.5" y="159.1" class="st40" width="97.5" height="4.9"/>
	<linearGradient id="SVGID_25_" gradientUnits="userSpaceOnUse" x1="599.4548" y1="161.5343" x2="618.9916" y2="161.5343">
		<stop offset="0" style="stop-color:#FFFFFF"/>
		<stop offset="0.1227" style="stop-color:#DADADA"/>
		<stop offset="0.4483" style="stop-color:#7E7E7E"/>
		<stop offset="0.7128" style="stop-color:#3A3A3A"/>
		<stop offset="0.9029" style="stop-color:#101010"/>
		<stop offset="1" style="stop-color:#000000"/>
	</linearGradient>
	<rect x="599.5" y="159.1" class="st41" width="19.5" height="4.9"/>
	<rect x="516.5" y="193.9" class="st42" width="19.5" height="56.7"/>
	
		<rect x="536" y="193.9" transform="matrix(-1 -1.224647e-16 1.224647e-16 -1 1077.1173 444.5081)" class="st40" width="5.1" height="56.7"/>
	<rect x="667.4" y="164" class="st42" width="19.5" height="86.6"/>
	
		<rect x="687" y="164" transform="matrix(-1 -1.224647e-16 1.224647e-16 -1 1378.9681 414.5789)" class="st40" width="5.1" height="86.6"/>
	<linearGradient id="SVGID_26_" gradientUnits="userSpaceOnUse" x1="679.7157" y1="178.6077" x2="679.7157" y2="166.8713">
		<stop offset="0" style="stop-color:#FFFFFF"/>
		<stop offset="0.1227" style="stop-color:#DADADA"/>
		<stop offset="0.4483" style="stop-color:#7E7E7E"/>
		<stop offset="0.7128" style="stop-color:#3A3A3A"/>
		<stop offset="0.9029" style="stop-color:#101010"/>
		<stop offset="1" style="stop-color:#000000"/>
	</linearGradient>
	<rect x="667.4" y="164" class="st43" width="24.6" height="5.3"/>
	<rect x="604.4" y="164" class="st42" width="19.5" height="86.6"/>
	
		<rect x="623.9" y="164" transform="matrix(-1 -1.224647e-16 1.224647e-16 -1 1252.9022 414.5789)" class="st40" width="5.1" height="86.6"/>
	<linearGradient id="SVGID_27_" gradientUnits="userSpaceOnUse" x1="616.6827" y1="174.0007" x2="616.6827" y2="163.0533">
		<stop offset="0" style="stop-color:#FFFFFF"/>
		<stop offset="0.1227" style="stop-color:#DADADA"/>
		<stop offset="0.4483" style="stop-color:#7E7E7E"/>
		<stop offset="0.7128" style="stop-color:#3A3A3A"/>
		<stop offset="0.9029" style="stop-color:#101010"/>
		<stop offset="1" style="stop-color:#000000"/>
	</linearGradient>
	<rect x="604.4" y="164" class="st44" width="24.6" height="5.3"/>
	<rect x="629" y="164" class="st45" width="54.5" height="19.4"/>
	<rect x="541.1" y="193.9" class="st45" width="82.8" height="12.7"/>
	<line class="st46" x1="599.5" y1="164" x2="696.9" y2="164"/>
	<line class="st46" x1="629" y1="165.5" x2="629" y2="183.4"/>
	<rect x="511.6" y="189" class="st40" width="112.4" height="4.9"/>
	<linearGradient id="SVGID_28_" gradientUnits="userSpaceOnUse" x1="511.5602" y1="191.4635" x2="531.0969" y2="191.4635">
		<stop offset="0" style="stop-color:#FFFFFF"/>
		<stop offset="0.1227" style="stop-color:#DADADA"/>
		<stop offset="0.4483" style="stop-color:#7E7E7E"/>
		<stop offset="0.7128" style="stop-color:#3A3A3A"/>
		<stop offset="0.9029" style="stop-color:#101010"/>
		<stop offset="1" style="stop-color:#000000"/>
	</linearGradient>
	<rect x="511.6" y="189" class="st47" width="19.5" height="4.9"/>
	<line class="st46" x1="623.9" y1="193.9" x2="623.9" y2="250.6"/>
	<line class="st46" x1="511.6" y1="193.9" x2="625.7" y2="193.9"/>
	<linearGradient id="SVGID_29_" gradientUnits="userSpaceOnUse" x1="570.2111" y1="203.1971" x2="570.2111" y2="191.9129">
		<stop offset="0" style="stop-color:#FFFFFF"/>
		<stop offset="0.1227" style="stop-color:#DADADA"/>
		<stop offset="0.4483" style="stop-color:#7E7E7E"/>
		<stop offset="0.7128" style="stop-color:#3A3A3A"/>
		<stop offset="0.9029" style="stop-color:#101010"/>
		<stop offset="1" style="stop-color:#000000"/>
	</linearGradient>
	<rect x="516.5" y="193.9" class="st48" width="107.4" height="5.3"/>
	<line class="st46" x1="536" y1="193.9" x2="536" y2="229.6"/>
</g>
<g>
	<rect x="657.5" y="150.4" class="st49" width="8.7" height="8.7"/>
	<linearGradient id="SVGID_30_" gradientUnits="userSpaceOnUse" x1="661.8081" y1="158.197" x2="661.8081" y2="151.5255">
		<stop offset="0" style="stop-color:#FFFFFF"/>
		<stop offset="0.1227" style="stop-color:#DADADA"/>
		<stop offset="0.4483" style="stop-color:#7E7E7E"/>
		<stop offset="0.7128" style="stop-color:#3A3A3A"/>
		<stop offset="0.9029" style="stop-color:#101010"/>
		<stop offset="1" style="stop-color:#000000"/>
	</linearGradient>
	<polygon class="st50" points="666.1,155.9 657.5,153.5 657.5,150.4 666.1,150.4  "/>
	<path class="st49" d="M686,152h-48.3c-0.9,0-1.6-0.7-1.6-1.6v-31.2c0-0.9,0.7-1.6,1.6-1.6H686c0.9,0,1.6,0.7,1.6,1.6v31.2   C687.6,151.3,686.8,152,686,152z"/>
	<path class="st5" d="M684,148.8h-44.4c-0.3,0-0.5-0.2-0.5-0.5v-27.1c0-0.3,0.2-0.5,0.5-0.5H684c0.3,0,0.5,0.2,0.5,0.5v27.1   C684.5,148.6,684.3,148.8,684,148.8z"/>
	<line class="st51" x1="640.2" y1="124.2" x2="683.5" y2="124.2"/>
	<line class="st52" x1="651.6" y1="125.8" x2="651.6" y2="147.5"/>
	<g>
		<circle class="st53" cx="642.2" cy="127.5" r="0.7"/>
		<line class="st54" x1="644.2" y1="127.5" x2="648.9" y2="127.5"/>
	</g>
	<g>
		<circle class="st53" cx="642.2" cy="132.4" r="0.7"/>
		<line class="st54" x1="644.2" y1="132.4" x2="648.9" y2="132.4"/>
	</g>
	<g>
		<circle class="st53" cx="642.2" cy="137.3" r="0.7"/>
		<line class="st54" x1="644.2" y1="137.3" x2="648.9" y2="137.3"/>
	</g>
	<g>
		<circle class="st53" cx="642.2" cy="142.2" r="0.7"/>
		<line class="st54" x1="644.2" y1="142.2" x2="648.9" y2="142.2"/>
	</g>
	<path class="st53" d="M658.9,130h-3.3c-0.3,0-0.5-0.2-0.5-0.5v-2.1c0-0.3,0.2-0.5,0.5-0.5h3.3c0.3,0,0.5,0.2,0.5,0.5v2.1   C659.5,129.8,659.2,130,658.9,130z"/>
	<path class="st53" d="M666.4,130h-3.3c-0.3,0-0.5-0.2-0.5-0.5v-2.1c0-0.3,0.2-0.5,0.5-0.5h3.3c0.3,0,0.5,0.2,0.5,0.5v2.1   C666.9,129.8,666.7,130,666.4,130z"/>
	<path class="st53" d="M673.8,130h-3.3c-0.3,0-0.5-0.2-0.5-0.5v-2.1c0-0.3,0.2-0.5,0.5-0.5h3.3c0.3,0,0.5,0.2,0.5,0.5v2.1   C674.3,129.8,674.1,130,673.8,130z"/>
	<line class="st54" x1="655.2" y1="134.8" x2="673.9" y2="134.8"/>
	<line class="st54" x1="655.2" y1="137.3" x2="673.9" y2="137.3"/>
	<line class="st54" x1="655.2" y1="139.8" x2="673.9" y2="139.8"/>
	<line class="st54" x1="655.2" y1="142.3" x2="673.9" y2="142.3"/>
	<g>
		<line class="st46" x1="642.2" y1="122.6" x2="643.9" y2="122.6"/>
		<line class="st46" x1="646.3" y1="122.6" x2="648" y2="122.6"/>
		<line class="st46" x1="650.4" y1="122.6" x2="652.1" y2="122.6"/>
	</g>
</g>
<g>
	<path class="st5" d="M689.3,248.2c0,0,1.9,9.9,1.8,13.4c0,0-16.2,0-18.2,0c0,0-1.1-1.4,0-2.4c1.1-1,4.3-0.5,6.6-2.4   c2.3-1.9,2.9-2.3,2.7-4.2c-0.2-1.9-0.6-4.3-0.6-4.3H689.3z"/>
	<path class="st21" d="M691,261.6c0-1.6-0.3-4.7-0.8-7.4c-3.4-0.1-5.7,1.7-5.7,1.7c-0.6-1.5-1.7-2.1-2.5-2.3   c-0.1,1.1-0.9,1.7-2.7,3.2c-2.3,1.9-5.5,1.4-6.6,2.4c-1.1,1,0,2.4,0,2.4C674.9,261.6,691,261.6,691,261.6z"/>
	<path class="st5" d="M711.8,248.2c0,0,1.9,9.9,1.8,13.4c0,0-16.2,0-18.2,0c0,0-1.1-1.4,0-2.4c1.1-1,4.3-0.5,6.6-2.4   c2.3-1.9,2.9-2.3,2.7-4.2c-0.2-1.9-0.6-4.3-0.6-4.3H711.8z"/>
	<path class="st21" d="M713.5,261.6c0-1.6-0.3-4.7-0.8-7.4c-3.4-0.1-5.7,1.7-5.7,1.7c-0.6-1.5-1.7-2.1-2.5-2.3   c-0.1,1.1-0.9,1.7-2.7,3.2c-2.3,1.9-5.5,1.4-6.6,2.4c-1.1,1,0,2.4,0,2.4C697.4,261.6,713.5,261.6,713.5,261.6z"/>
	<path class="st49" d="M683.5,166.6c0,0-6,37.6-5.9,46.6c0.1,9,0.7,22.9,1.2,26.6c0.4,3.7,0,7.8-0.4,9.2h13c0.8-2.9,0.4-5.1,0-6.8   c-0.4-1.7-1.8-3.5-1-7.3c0.7-3.8,0.5-5.3,0.1-8c-0.4-2.7-1.9-4.1-1.5-6.4c0.4-2.4,0.1-7.5-0.8-9.5c0,0,5.8-13.3,8.3-25.3   c0,0-0.7,30.1,5.2,64h12.7c0,0-3.1-5.3-3.1-8.9c0-3.6,0.6-8.6,0.1-12.1c-0.4-3.6-2-4-1.8-7.7c0.4-5.1-1-9.9-1.9-12   c0,0,3.1-15.4,3.7-23.5c0.6-8.1,3.8-11.1,0.6-18.4L683.5,166.6z"/>
	<path class="st26" d="M687.3,168.4c0,0-0.8,6.1-5.2,7.6"/>
	<path class="st26" d="M688.2,173.8h9.7c0,0-1.2,3.4-4.9,3.4C689.4,177.1,688.2,173.8,688.2,173.8z"/>
	<path class="st26" d="M713.5,173.8h-7.7c0,0,1.2,3.4,4.9,3.4c1,0,1.9-0.3,2.6-0.7"/>
	<path class="st26" d="M702.2,178.8c0,0-1.2,4.1-5.5,6.2"/>
	<linearGradient id="SVGID_31_" gradientUnits="userSpaceOnUse" x1="707.0002" y1="244.2148" x2="691.3573" y2="190.4289">
		<stop offset="0" style="stop-color:#FFFFFF"/>
		<stop offset="0.1227" style="stop-color:#DADADA"/>
		<stop offset="0.4483" style="stop-color:#7E7E7E"/>
		<stop offset="0.7128" style="stop-color:#3A3A3A"/>
		<stop offset="0.9029" style="stop-color:#101010"/>
		<stop offset="1" style="stop-color:#000000"/>
	</linearGradient>
	<path class="st55" d="M714.5,249.8c0,0-3.1-5.3-3.1-8.9c0-1.4,0.1-3,0.2-4.7l-15-50.4c0,0-0.7,30.1,5.2,64H714.5z"/>
	<path class="st26" d="M684.1,174.8c0,0-4.3,33.4-4,37.6c0.3,4.1,2.1,36.7,2.1,36.7"/>
	<linearGradient id="SVGID_32_" gradientUnits="userSpaceOnUse" x1="698.5272" y1="174.3652" x2="697.4825" y2="166.3295">
		<stop offset="0" style="stop-color:#FFFFFF"/>
		<stop offset="0.1227" style="stop-color:#DADADA"/>
		<stop offset="0.4483" style="stop-color:#7E7E7E"/>
		<stop offset="0.7128" style="stop-color:#3A3A3A"/>
		<stop offset="0.9029" style="stop-color:#101010"/>
		<stop offset="1" style="stop-color:#000000"/>
	</linearGradient>
	<path class="st56" d="M712.1,167.2l-28.6-0.6c0,0-0.3,1.6-0.7,4.3l30.6,3.6C713.7,172.4,713.4,170.2,712.1,167.2z"/>
	<path class="st29" d="M665.4,159H658c0,0,0-1.3,6.9-4.3L665.4,159z"/>
	<path class="st20" d="M713.1,125.8c4.2,3.1,9.2,20.8,10.3,26.4c1.1,5.6-3.3,6.9-9.3,6.9c0,0-3.4-14.9-3.5-22.7   C710.5,128.5,713.1,125.8,713.1,125.8z"/>
	<linearGradient id="SVGID_33_" gradientUnits="userSpaceOnUse" x1="721.5374" y1="150.515" x2="705.7873" y2="154.1579">
		<stop offset="0" style="stop-color:#FFFFFF"/>
		<stop offset="0.1227" style="stop-color:#DADADA"/>
		<stop offset="0.4483" style="stop-color:#7E7E7E"/>
		<stop offset="0.7128" style="stop-color:#3A3A3A"/>
		<stop offset="0.9029" style="stop-color:#101010"/>
		<stop offset="1" style="stop-color:#000000"/>
	</linearGradient>
	<path class="st57" d="M714.1,159.1c3.6,0,6.6-0.5,8.2-2.1c-6.1-0.5-6.4-12.7-6.4-12.7l-3.8,4.5C713,154.3,714.1,159.1,714.1,159.1z   "/>
	<path class="st21" d="M703.2,117c-0.3-1.5,2.8-3.5,3-7.9c0.3-4.4-1.7-6.9-4.8-8.2c-3.2-1.3-6.4-0.8-8.4-3.6c-2-2.8-3.6-2.6-4-1.3   s1,3.6,1,3.6s-3.3-2.6-4.6-0.7c-1.3,1.9,1,4.5,1,4.5s-2.6-1.9-3.3-0.5c-0.7,1.4-0.3,5.7,7.9,7.4c1.8,0.4,7.6,6.3,9.2,6.6   C701.9,117.4,703.2,117,703.2,117z"/>
	<path class="st29" d="M703.2,117c-1-0.6-2.4-2.4-3.1-3.2c1.9-0.7,1.8-4.5-0.1-4.6c-1.1,0-1.4,1.1-1.5,2.2c-1.2-2.5-1.7-4.8-1.7-4.8   c-5,1-7.8,0.4-7.8,0.4s0.2,3,0.1,3.8c-0.1,0.9-1.3,1.2-1.3,1.7c0,0.4,1.9,0.5,1.9,0.5s0.4,2.2,0.9,4.3c0.3,1.3,3.4,0.6,3.4,0.6   l1.5,5.3h8.7L703.2,117z"/>
	<path class="st20" d="M683.9,129.6c0.5,6.9,1,22-1.6,36.1c-0.3,1.6,1,3.2,2.6,3.2h26.2c1.4,0,2.7-1,3-2.4c1.3-6,3.9-22.3-1-40.7   c0,0-9.6-6.9-25.6-1.5C685.2,125,683.8,127.2,683.9,129.6z"/>
	<path class="st58" d="M714.1,166.5c1.1-5.2,3.3-18.5,0.5-34.1"/>
	<path class="st20" d="M672,151.5c0,0,8.9-27.3,15.5-27.2c9.6,0.1-4,27.3-6.4,31.4c-2.5,4-10.2,3.4-15.6,3.4c0,0-1.7-0.8-0.6-4.3   L672,151.5z"/>
	<path class="st58" d="M689.5,136.2c-1.5,5.2-4.1,10.9-6.1,14.9"/>
	<linearGradient id="SVGID_34_" gradientUnits="userSpaceOnUse" x1="700.8635" y1="112.1577" x2="694.4081" y2="121.881">
		<stop offset="0" style="stop-color:#FFFFFF"/>
		<stop offset="0.1227" style="stop-color:#DADADA"/>
		<stop offset="0.4483" style="stop-color:#7E7E7E"/>
		<stop offset="0.7128" style="stop-color:#3A3A3A"/>
		<stop offset="0.9029" style="stop-color:#101010"/>
		<stop offset="1" style="stop-color:#000000"/>
	</linearGradient>
	<path class="st59" d="M700.1,113.8l-8.6,4.1c1,0.3,2.6,0,2.6,0l0.7,2.6c1,0.4,2.1,0.7,2.9,0.6c2.6-0.3,5.5-4.1,5.5-4.1   C702.2,116.4,700.8,114.7,700.1,113.8z"/>
</g>
<g>
	<path class="st29" d="M469.5,132.1c0,0,3.5-0.9,4-1.8c0.5-0.9,0-3.6,0-3.6l-4.3,1.8L469.5,132.1z"/>
	<linearGradient id="SVGID_35_" gradientUnits="userSpaceOnUse" x1="475.8917" y1="128.1076" x2="469.4362" y2="129.7147">
		<stop offset="0" style="stop-color:#FFFFFF"/>
		<stop offset="0.1227" style="stop-color:#DADADA"/>
		<stop offset="0.4483" style="stop-color:#7E7E7E"/>
		<stop offset="0.7128" style="stop-color:#3A3A3A"/>
		<stop offset="0.9029" style="stop-color:#101010"/>
		<stop offset="1" style="stop-color:#000000"/>
	</linearGradient>
	<path class="st60" d="M469.6,128.3c0.2,1,0.3,1.7,0.3,1.7s0.7,0.9,2.7,0.9c0.4-0.2,0.7-0.4,0.8-0.7c0.5-0.9,0-3.6,0-3.6   L469.6,128.3z"/>
	<path class="st25" d="M473.4,130.2h-2.5c-0.6,0-1.1-0.5-1.1-1.1v-3.9c0-0.6,0.5-1.1,1.1-1.1h2.5c0.6,0,1.1,0.5,1.1,1.1v3.9   C474.5,129.7,474,130.2,473.4,130.2z"/>
	<path class="st21" d="M439.3,101.4c4.5,0.8,6.7,5.6,5.9,11.5c-0.1,0.5-0.1,1-0.1,1.6c0.1,0.9,0.1,2.5-0.3,4c-0.4,1.4-0.3,3,0.1,4.4   c0.4,1.4,0.6,3.1,0,4.3c-1.2,2.4-23.1,1-23.1,1s-1.5-2.8-0.8-6c0.7-3.2,3.6-4.2,4.3-9.2C426.1,108.1,428.5,99.6,439.3,101.4z"/>
	<path class="st29" d="M441.1,123.5c2.5,0.5,4.5,1.6,6.2,4c1.6,2.4,9,10.4,9,10.4l12.2-8.4c0,0,0.2-2.5,2.1-3.9   c0.8-0.5,0.3,0.9-0.2,1.4c0,0,0.1,1.9-0.4,3.9c-0.5,2-9,14.1-14,14.1c-4.9,0-15-14.1-15-14.1L441.1,123.5z"/>
	<path class="st29" d="M446.1,210.9c0,0.3,1.7,32.5,1.9,37.5c0,0.4,0.1,0.9,0.2,1.3l1.6,5.3c0.2,0.7,0.6,1.4,1.1,2   c1.3,1.5,3.8,4.3,3.8,4.6c-0.1,0.4-5.6-0.2-7-1.1c-1.4-0.9-4.6-5.2-4.6-5.2v6.2H442c0,0-3-6.6,0.8-12.9c0,0,0-5.7-1.4-11.3   c-1.4-5.6-4.6-17.5-2.9-26.3H446.1z"/>
	<path class="st22" d="M443.2,261.6v-6.2c0,0,3.3,4.3,4.6,5.2c1.4,0.9,6.9,1.5,7,1.1c0.1-0.3-2.4-3.1-3.8-4.6   c-0.5-0.6-0.9-1.3-1.1-2l-0.4-1.1c-5.7,0.7-3.9-3.1-6.8-5.2c-3.7,6.3-0.8,12.9-0.8,12.9H443.2z"/>
	<path class="st29" d="M424.4,211c-0.1,0.3-7.8,31.6-9,36.4c-0.1,0.4-0.2,0.9-0.2,1.3l0,5.5c0,0.8,0.2,1.5,0.5,2.2   c0.8,1.8,2.4,5.2,2.3,5.5c-0.2,0.3-5.3-1.8-6.4-3.1c-1.1-1.2-2.9-6.3-2.9-6.3l-1.8,6l-1.1-0.3c0,0-0.9-7.2,4.5-12.1   c0,0,1.7-5.5,2-11.3c0.3-5.8,0.6-18.1,4.9-26L424.4,211z"/>
	<path class="st22" d="M406.9,258.6l1.8-6c0,0,1.9,5,2.9,6.3c1.1,1.2,6.2,3.4,6.4,3.1c0.2-0.3-1.4-3.7-2.3-5.5   c-0.3-0.7-0.5-1.5-0.5-2.2l0-1.2c-5.7-1-2.9-4.1-5-7c-5.4,5-4.5,12.1-4.5,12.1L406.9,258.6z"/>
	<g class="st32">
		<linearGradient id="SVGID_36_" gradientUnits="userSpaceOnUse" x1="442.2339" y1="225.0545" x2="442.2339" y2="209.6845">
			<stop offset="0" style="stop-color:#FFFFFF"/>
			<stop offset="0.1227" style="stop-color:#DADADA"/>
			<stop offset="0.4483" style="stop-color:#7E7E7E"/>
			<stop offset="0.7128" style="stop-color:#3A3A3A"/>
			<stop offset="0.9029" style="stop-color:#101010"/>
			<stop offset="1" style="stop-color:#000000"/>
		</linearGradient>
		<path class="st61" d="M446.1,210.9h-7.6c-0.5,2.3-0.6,4.7-0.5,7.3c3.3,0,6.2-0.5,8.4-1.1C446.3,213.5,446.1,211,446.1,210.9z"/>
		<linearGradient id="SVGID_37_" gradientUnits="userSpaceOnUse" x1="419.0852" y1="225.0545" x2="419.0852" y2="209.6844">
			<stop offset="0" style="stop-color:#FFFFFF"/>
			<stop offset="0.1227" style="stop-color:#DADADA"/>
			<stop offset="0.4483" style="stop-color:#7E7E7E"/>
			<stop offset="0.7128" style="stop-color:#3A3A3A"/>
			<stop offset="0.9029" style="stop-color:#101010"/>
			<stop offset="1" style="stop-color:#000000"/>
		</linearGradient>
		<path class="st62" d="M417.1,208.8c-1.6,3-2.6,6.6-3.3,10.2c0.5,0.1,1.1,0.2,1.6,0.2l3.6,0.1c1.1,0,2.2-0.1,3.4-0.1    c1.2-4.7,2-8.1,2-8.2L417.1,208.8z"/>
	</g>
	<path class="st49" d="M442.7,155.2c-4.2-2.9-16.4,0-16.4,0c-11.2,8.5-7.1,20.6-10.4,39.9c-1.4,8.2-4.6,19.5-4.6,19.5   c0.8,0.6,2.3,0.9,4.1,1l2.6-5.5l1,5.6c6.1-0.1,14.1-1.1,18.7-1.1c7.1,0,12.6-2.2,12.6-2.2C447.9,178.3,442.7,155.2,442.7,155.2z"/>
	<path class="st63" d="M428.4,153.9c0,0-5.5,6.7-6.8,17.9c-1.1,9.4-2.5,31-3.6,38.3"/>
	<linearGradient id="SVGID_38_" gradientUnits="userSpaceOnUse" x1="433.4413" y1="160.6882" x2="433.4413" y2="151.6021">
		<stop offset="0" style="stop-color:#FFFFFF"/>
		<stop offset="0.1227" style="stop-color:#DADADA"/>
		<stop offset="0.4483" style="stop-color:#7E7E7E"/>
		<stop offset="0.7128" style="stop-color:#3A3A3A"/>
		<stop offset="0.9029" style="stop-color:#101010"/>
		<stop offset="1" style="stop-color:#000000"/>
	</linearGradient>
	<path class="st64" d="M443.2,157.8c-0.3-1.7-0.5-2.6-0.5-2.6c-4.2-2.9-16.4,0-16.4,0c-1,0.8-1.9,1.6-2.7,2.4   C430.1,158.4,436.7,158.4,443.2,157.8z"/>
	<path class="st5" d="M442.7,155.2c-5.4,0.9-10.9,0.9-16.4,0c-0.1-2.3-0.1-4.5-0.2-6.8c5.6,0,11.1,0,16.7,0   C442.8,150.7,442.7,152.9,442.7,155.2z"/>
	<path class="st20" d="M423.3,124.5c0,0,4.8-1.2,8.7-1.5c3-0.2,6.4,0.1,8.6,0.4c1.2,0.2,2.2,1,2.5,2.2c0.3,1.2,0.8,2.6,1.5,3.9   c1.3,2.4,2.1,5,1.1,9c-0.7,2.9-1.5,7.4-1.9,9.7c-0.1,0.9-0.9,1.6-1.8,1.6h-15.7c-0.9,0-1.5-0.7-1.8-1.6   C423,143.9,422.3,131.2,423.3,124.5z"/>
	<path class="st29" d="M423.3,124.5c3-0.6,3.6,5.3,3.2,7.9c-0.4,2.6-2.9,12.2-2.9,12.2l9.2-6.1c0,0,1.2-2.6,2.4-3.5   c1.2-0.8,4.1-2.2,4.3-1.7c0.2,0.5-2.7,2.1-2.7,2.1s2.9-1,3.2-0.3c0.2,0.7-1,2.6-2,3.3c-1,0.6-2.5,3.4-3.9,2.8   c0,0-10.3,14.1-15.6,11.4C413.8,150.4,420.4,125.2,423.3,124.5z"/>
	<path class="st29" d="M439.9,106.9c0,0,0.5,2.8,2.8,4.5c0,0-0.5,5.6-0.8,7.3c-0.3,1.7-2.9,2.3-3.9,2.1v2.7c0,0-3.9,0.9-7-0.2v-3.4   c0,0,1.7-1.8,1.8-4.5c0.1-2.7,1.2-3.1,2.9-4.1C438.7,109.5,439.9,106.9,439.9,106.9z"/>
	<linearGradient id="SVGID_39_" gradientUnits="userSpaceOnUse" x1="436.3641" y1="123.5418" x2="436.0427" y2="115.5062">
		<stop offset="0" style="stop-color:#FFFFFF"/>
		<stop offset="0.1227" style="stop-color:#DADADA"/>
		<stop offset="0.4483" style="stop-color:#7E7E7E"/>
		<stop offset="0.7128" style="stop-color:#3A3A3A"/>
		<stop offset="0.9029" style="stop-color:#101010"/>
		<stop offset="1" style="stop-color:#000000"/>
	</linearGradient>
	<path class="st65" d="M441,120.1c-4.9,0.2-7.2-1.5-8.3-4c-0.2,1.4-0.8,2.5-1.2,3.2c2.9,5.1,6.5,3.5,6.5,3.5v-1.9   C438.6,121,440,120.8,441,120.1z"/>
	<path class="st66" d="M429.2,123.4c1.7,2.1,9.4,2.8,10-0.1"/>
</g>
<g>
	<path class="st67" d="M99.9,88c0,2.6,0.3,4.7,0.8,6.2c0.6,1.5,1.3,3.2,2.2,5c0.3,0.6,0.5,1.1,0.5,1.6c0,0.7-0.4,1.4-1.3,2.1   l-4.4,2.9c-0.6,0.4-1.3,0.6-1.8,0.6c-0.7,0-1.4-0.3-2.1-1c-1-1-1.8-2.2-2.5-3.3c-0.7-1.2-1.4-2.5-2.2-4.1   c-5.4,6.4-12.3,9.6-20.5,9.6c-5.9,0-10.5-1.7-14-5c-3.4-3.4-5.2-7.8-5.2-13.4c0-5.9,2.1-10.8,6.4-14.4c4.3-3.6,9.9-5.4,17.1-5.4   c2.4,0,4.8,0.2,7.4,0.6c2.6,0.3,5.2,0.9,8,1.5v-5.1c0-5.3-1.1-9-3.3-11.2c-2.2-2.2-6-3.2-11.4-3.2c-2.4,0-5,0.3-7.5,0.9   c-2.6,0.6-5.1,1.4-7.5,2.4c-1.1,0.5-2,0.8-2.4,0.9c-0.5,0.1-0.8,0.2-1.1,0.2c-1,0-1.5-0.7-1.5-2.2v-3.4c0-1.1,0.1-2,0.5-2.4   s1-1,2-1.5c2.4-1.3,5.4-2.3,8.8-3.1c3.4-0.9,7.1-1.3,10.9-1.3c8.3,0,14.4,1.9,18.3,5.7c3.8,3.8,5.8,9.5,5.8,17.2V88H99.9z    M71.5,98.6c2.3,0,4.7-0.4,7.2-1.3c2.5-0.8,4.8-2.4,6.6-4.5c1.1-1.3,2-2.8,2.4-4.5c0.4-1.7,0.7-3.7,0.7-6.1v-2.9   c-2-0.5-4.2-0.9-6.4-1.2c-2.2-0.3-4.4-0.4-6.6-0.4c-4.7,0-8.1,0.9-10.4,2.8c-2.3,1.9-3.4,4.5-3.4,8c0,3.3,0.8,5.7,2.6,7.4   C65.8,97.8,68.3,98.6,71.5,98.6z M127.6,106.2c-1.3,0-2.1-0.2-2.7-0.7c-0.6-0.4-1-1.4-1.5-2.7l-16.4-54c-0.4-1.4-0.6-2.3-0.6-2.8   c0-1.1,0.6-1.7,1.7-1.7h6.8c1.3,0,2.2,0.2,2.7,0.7c0.6,0.4,1,1.4,1.4,2.7l11.7,46.2l10.9-46.2c0.3-1.4,0.8-2.3,1.3-2.7   c0.6-0.4,1.5-0.7,2.8-0.7h5.6c1.3,0,2.2,0.2,2.8,0.7c0.6,0.4,1,1.4,1.3,2.7l11,46.8l12.1-46.8c0.4-1.4,0.9-2.3,1.4-2.7   c0.6-0.4,1.5-0.7,2.7-0.7h6.5c1.1,0,1.7,0.6,1.7,1.7c0,0.3-0.1,0.7-0.1,1.1c-0.1,0.4-0.2,1-0.5,1.7l-16.8,54   c-0.4,1.4-0.9,2.3-1.5,2.7s-1.5,0.7-2.7,0.7h-6c-1.3,0-2.2-0.2-2.8-0.7s-1-1.4-1.3-2.8l-10.8-45.1l-10.8,45   c-0.3,1.4-0.8,2.3-1.3,2.8c-0.6,0.5-1.5,0.7-2.8,0.7H127.6z M217.4,108.1c-3.6,0-7.3-0.4-10.8-1.3s-6.2-1.7-8-2.8   c-1.1-0.6-1.9-1.3-2.2-2c-0.3-0.6-0.4-1.3-0.4-2v-3.6c0-1.5,0.6-2.2,1.6-2.2c0.4,0,0.8,0.1,1.3,0.2c0.4,0.1,1,0.4,1.7,0.7   c2.4,1,5,1.9,7.7,2.4c2.8,0.6,5.5,0.8,8.3,0.8c4.4,0,7.8-0.8,10.2-2.3c2.4-1.5,3.6-3.8,3.6-6.6c0-2-0.6-3.6-1.9-4.9   c-1.3-1.3-3.6-2.5-7.1-3.6L211.4,78c-5.1-1.6-8.9-4-11.2-7.1c-2.3-3.1-3.5-6.5-3.5-10.1c0-2.9,0.6-5.5,1.9-7.8s2.9-4.2,5-5.7   c2.1-1.6,4.5-2.8,7.3-3.6c2.8-0.8,5.7-1.2,8.8-1.2c1.5,0,3.1,0.1,4.7,0.3c1.6,0.2,3.1,0.5,4.5,0.8c1.4,0.3,2.7,0.7,4,1.1   c1.3,0.4,2.2,0.8,2.9,1.3c1,0.6,1.7,1.1,2.1,1.7c0.4,0.6,0.6,1.3,0.6,2.3v3.3c0,1.5-0.6,2.2-1.6,2.2c-0.6,0-1.5-0.3-2.7-0.8   c-4-1.8-8.5-2.7-13.4-2.7c-4,0-7.1,0.6-9.3,2c-2.2,1.3-3.3,3.4-3.3,6.2c0,2,0.7,3.6,2.1,5c1.4,1.3,4,2.7,7.7,3.8l9.9,3.1   c5,1.6,8.7,3.8,10.8,6.7c2.2,2.9,3.2,6.1,3.2,9.8c0,3-0.6,5.7-1.8,8.1c-1.3,2.4-2.9,4.5-5.1,6.1c-2.2,1.7-4.8,3-7.8,3.9   C224.2,107.6,220.9,108.1,217.4,108.1z"/>
	<g>
		<path class="st68" d="M230.6,142c-23,17-56.4,26-85.1,26c-40.2,0-76.5-14.9-103.9-39.6c-2.2-2-0.2-4.6,2.4-3.1    c29.6,17.2,66.2,27.6,104,27.6c25.5,0,53.5-5.3,79.3-16.2C231.1,135,234.3,139.2,230.6,142z"/>
		<path class="st68" d="M240.1,131.1c-2.9-3.8-19.4-1.8-26.9-0.9c-2.2,0.3-2.6-1.7-0.6-3.1c13.1-9.2,34.7-6.6,37.2-3.5    c2.5,3.1-0.7,24.7-13,35.1c-1.9,1.6-3.7,0.8-2.9-1.3C236.9,150.4,243.1,134.8,240.1,131.1z"/>
	</g>
</g>
<path class="st5" d="M345.3,58.9h0.3c0-10.6,8.6-19.3,19.3-19.3c6.7,0,12.6,3.4,16,8.6c1.7-0.9,3.6-1.5,5.7-1.5  c6.7,0,12.2,5.4,12.2,12.2h1c5.3,0,9.6,4.3,9.6,9.6c0,5.3-4.3,9.6-9.6,9.6h-54.5c-5.3,0-9.6-4.3-9.6-9.6  C335.6,63.2,339.9,58.9,345.3,58.9z"/>
<path class="st5" d="M742.9,134.6h0.4c0-11.4,9.2-20.6,20.6-20.6c7.1,0,13.4,3.6,17.1,9.2c1.8-1,3.9-1.6,6.1-1.6c7.2,0,13,5.8,13,13  h1.1c5.7,0,10.3,4.6,10.3,10.3c0,5.7-4.6,10.3-10.3,10.3h-58.2c-5.7,0-10.3-4.6-10.3-10.3C732.6,139.2,737.2,134.6,742.9,134.6z"/>
</svg>